<?xml version="1.0" encoding="utf-8"?>
<!-- Generator: Adobe Illustrator 19.0.0, SVG Export Plug-In . SVG Version: 6.00 Build 0)  -->
<svg version="1.1" id="Layer_1"
	xmlns="http://www.w3.org/2000/svg"
	xmlns:xlink="http://www.w3.org/1999/xlink" x="0px" y="0px" viewBox="0 0 251.4 47.6" style="enable-background:new 0 0 251.4 47.6;" xml:space="preserve">
	<g id="XMLID_20_">
		<path id="XMLID_149_" fill="#707070" d="M63.1,6c1.6,0,3.1,0.3,4.3,0.9s2.2,1.3,3,2.2s1.4,2,1.8,3.2c0.4,1.2,0.6,2.4,0.5,3.7
		c0,1-0.2,2-0.4,3c-0.3,1-0.7,1.9-1.2,2.7l2.3,2.2l-2.9,2.8l-2.2-2.2c-0.7,0.4-1.5,0.7-2.4,1c-0.9,0.2-1.9,0.4-3,0.4
		c-1.7,0-3.2-0.3-4.5-0.8c-1.2-0.6-2.2-1.3-3-2.2c-0.8-0.9-1.4-2-1.7-3.1c-0.4-1.2-0.6-2.4-0.6-3.6c0-1.6,0.3-3,0.8-4.3
		c0.5-1.2,1.2-2.3,2.1-3.2c0.9-0.9,2-1.5,3.2-1.9C60.5,6.2,61.8,6,63.1,6z M68.7,16c0-0.7-0.1-1.5-0.3-2.2c-0.2-0.7-0.5-1.4-0.9-2
		c-0.4-0.6-1-1.1-1.7-1.5c-0.7-0.4-1.6-0.6-2.7-0.6c-1,0-1.8,0.2-2.5,0.5c-0.7,0.3-1.3,0.7-1.8,1.3c-0.5,0.6-0.9,1.2-1.1,2
		c-0.3,0.8-0.4,1.6-0.4,2.6c0,0.8,0.1,1.6,0.3,2.3s0.6,1.4,1,1.9c0.5,0.6,1.1,1,1.8,1.3c0.7,0.3,1.6,0.5,2.7,0.5
		c1,0,1.9-0.2,2.6-0.5c0.7-0.4,1.3-0.8,1.7-1.4s0.8-1.2,1-1.9C68.6,17.5,68.7,16.8,68.7,16z"/>
		<path id="XMLID_152_" fill="#707070" d="M82,25.8c-1,0-1.8-0.1-2.6-0.2c-0.7-0.1-1.4-0.2-2-0.4c-0.6-0.2-1.1-0.4-1.6-0.7
		c-0.5-0.3-0.9-0.6-1.4-1l0-4.3h3.6l0.2,2.3c0.4,0.2,0.9,0.3,1.5,0.5s1.3,0.2,2.1,0.2c0.5,0,1,0,1.5-0.1c0.5-0.1,0.9-0.2,1.3-0.4
		c0.4-0.2,0.7-0.4,0.9-0.8c0.2-0.3,0.4-0.7,0.4-1.2c0-0.5-0.2-0.9-0.5-1.2c-0.3-0.3-0.7-0.5-1.2-0.6c-0.5-0.2-0.9-0.3-1.4-0.3
		c-0.5-0.1-0.9-0.1-1.2-0.2c-1-0.1-1.9-0.3-2.7-0.5c-0.9-0.2-1.6-0.5-2.3-0.9c-0.6-0.4-1.2-1-1.5-1.7c-0.4-0.7-0.6-1.6-0.5-2.7
		c0-0.9,0.2-1.8,0.7-2.5c0.4-0.7,1-1.3,1.7-1.8c0.7-0.5,1.5-0.8,2.5-1.1C80.4,6.1,81.4,6,82.5,6c0.9,0,1.6,0.1,2.3,0.2
		c0.7,0.1,1.3,0.3,1.8,0.5c0.5,0.2,1,0.4,1.4,0.7c0.4,0.3,0.7,0.5,1.1,0.8c0,0.4,0,0.8,0,1.1c0,0.3,0,0.6,0,0.9c0,0.3,0,0.6,0,0.9
		c0,0.3,0,0.7,0,1.1h-3.5l-0.2-2.2c-0.4-0.2-0.8-0.3-1.3-0.4c-0.4-0.1-1-0.1-1.7-0.1c-0.5,0-0.9,0-1.3,0.1c-0.4,0.1-0.8,0.2-1.1,0.4
		c-0.3,0.2-0.6,0.4-0.8,0.7c-0.2,0.3-0.3,0.6-0.3,1c0,0.7,0.3,1.2,0.9,1.5c0.6,0.3,1.5,0.5,2.6,0.7c1,0.1,2,0.3,3,0.5
		c1,0.2,1.8,0.5,2.5,0.9c0.7,0.4,1.3,1,1.8,1.7c0.4,0.7,0.6,1.7,0.6,2.9c0,1.9-0.7,3.3-2.1,4.4C86.7,25.2,84.6,25.8,82,25.8z"/>
		<path id="XMLID_154_" fill="#707070" d="M91.4,18.7c0-1,0.2-2,0.5-2.9c0.3-0.9,0.8-1.6,1.4-2.2c0.6-0.6,1.4-1.1,2.2-1.5
		s1.9-0.5,2.9-0.5c1.1,0,2.1,0.2,3,0.5s1.6,0.8,2.2,1.5c0.6,0.6,1.1,1.4,1.4,2.2c0.3,0.9,0.5,1.8,0.5,2.9c0,1-0.2,1.9-0.5,2.7
		c-0.3,0.8-0.8,1.6-1.4,2.2c-0.6,0.6-1.3,1.1-2.2,1.5c-0.9,0.4-1.9,0.6-3,0.6c-1.1,0-2.1-0.2-3-0.5c-0.9-0.4-1.6-0.8-2.2-1.5
		s-1.1-1.4-1.4-2.2C91.5,20.6,91.4,19.7,91.4,18.7z M101.9,18.7c0-0.5-0.1-1-0.2-1.5c-0.2-0.5-0.4-0.8-0.7-1.2
		c-0.3-0.3-0.7-0.6-1.1-0.8C99.5,15.1,99,15,98.5,15c-1.1,0-2,0.3-2.6,1c-0.6,0.7-0.9,1.6-0.9,2.7c0,0.5,0.1,0.9,0.2,1.3
		c0.1,0.4,0.3,0.8,0.6,1.1c0.3,0.3,0.6,0.6,1,0.8c0.4,0.2,0.9,0.3,1.5,0.3c0.6,0,1.1-0.1,1.5-0.3c0.4-0.2,0.8-0.4,1.1-0.8
		c0.3-0.3,0.5-0.7,0.6-1.1C101.8,19.6,101.9,19.1,101.9,18.7z"/>
		<path id="XMLID_157_" fill="#707070" d="M115,22.1v3.2h-7.7v-3.2h1.9v-6.8h-2.4v-3h2.4v-0.7c0-1,0.1-1.9,0.4-2.6
		c0.3-0.7,0.7-1.2,1.2-1.6c0.5-0.4,1.1-0.7,1.7-0.9c0.6-0.2,1.3-0.3,1.9-0.3c0.5,0,0.9,0,1.4,0.1c0.4,0.1,0.9,0.3,1.4,0.5l-0.9,2.9
		c-0.3-0.1-0.5-0.2-0.7-0.2c-0.2,0-0.5-0.1-0.7-0.1c-0.6,0-1,0.2-1.4,0.5c-0.4,0.4-0.5,0.9-0.5,1.7v0.7h2.8v3h-2.8v6.8H115z"/>
		<path id="XMLID_159_" fill="#707070" d="M122.2,8.3V12h3.5v3.2h-3.5v5.2c0,0.4,0.1,0.8,0.3,1c0.2,0.3,0.4,0.4,0.7,0.6
		c0.3,0.1,0.6,0.1,1,0.1c0.4,0,0.7-0.1,1.1-0.3l0.9,3.1c-0.6,0.3-1.2,0.4-1.6,0.5c-0.5,0.1-1,0.1-1.6,0.1c-1.6,0-2.7-0.4-3.4-1.2
		s-1.1-2.1-1.1-3.9v-5.2h-2.3V12h2.3V8.7L122.2,8.3z"/>
	</g>
	<g id="XMLID_15_">
		<path id="XMLID_17_" fill="#707070" d="M247.2,5.3c-1.5,0-2.8,1.2-2.8,2.8s1.2,2.8,2.8,2.8c1.5,0,2.8-1.2,2.8-2.8S248.8,5.3,247.2,5.3
		z M248,9.5l-0.7-1.1h-0.7v1.1H246V6.6h1.5c0.4,0,0.6,0.1,0.8,0.2c0.2,0.2,0.3,0.4,0.3,0.6c0,0.2-0.1,0.4-0.2,0.5
		c-0.1,0.2-0.3,0.2-0.5,0.3l0.8,1.2H248z"/>
		<path id="XMLID_16_" fill="#707070" d="M247.4,7.1h-0.8v0.9h0.8c0.2,0,0.3,0,0.4-0.1c0.1-0.1,0.1-0.2,0.1-0.3
		C248,7.2,247.8,7.1,247.4,7.1z"/>
	</g>
	<g id="XMLID_9_">
		<path id="XMLID_13_" fill-rule="evenodd" clip-rule="evenodd" fill="#FC6A30" d="M27,0c4.1,3.9,8.3,8.6,7.5,17.1c-9.6-2.3-15.9,4-18.2,10.6c3.7-1.9,10.7-1.4,14.1,0.3
		c-2,2.5-4.5,4.4-7.5,5.8c4.3,2,11.4,1.6,15.3-0.5c3.1,3.1,4.9,8.5,4.9,14.3c1.1-1.6,1.3-4,1.9-6c0.2,1,0.2,2.1,0.5,2.9
		c0.7-1.8,0.8-4.1,1.1-6.3c0.4,0.8,0.5,1.9,0.8,2.7c1.4-5.7-0.5-12-2.6-15.7c3.7-10.4-3.2-20.1-9.7-23.9c0.4,1,1.1,1.5,1.5,2.6
		c-1.7-1.2-3.2-2.6-5.4-3.4c-0.1,0.6,1.3,1.2,1.5,2.2c-1.6-1.1-3.5-2-5.5-2.7L27,0z"/>
		<path id="XMLID_12_" fill-rule="evenodd" clip-rule="evenodd" fill="#197FDB" d="M1,25.3C-2.7,14.9,4.3,5.2,10.8,1.4c-0.4,1-1.1,1.5-1.5,2.6c1.7-1.2,3.2-2.6,5.4-3.4
		c0.1,0.6-1.3,1.2-1.5,2.2c1.6-1.1,3.5-2,5.5-2.7l0.2,0c-3.8,3.6-7.6,7.8-7.6,15.1l0,0c0,0,0,0.1,0,0.3l0,0.2c0,0.2,0,0.5,0.1,0.8
		c0,0.2,0,0.4,0,0.7l0,0c0.3,2.5,1.2,7,4.1,10.9l0,0c0.1,0.2,0.3,0.3,0.5,0.5c0.3,0.4,0.6,0.7,0.9,1.1l0.2,0.3c0.5,0.5,1,1,1.6,1.4
		l0,0c1.3,1,2.7,1.8,4.2,2.6c-4.3,2-11.4,1.6-15.3-0.5C7.7,33.3,3,31,1,25.3"/>
		<linearGradient id="XMLID_141_" gradientUnits="userSpaceOnUse" x1="31.7332" y1="33.3864" x2="34.8081" y2="30.089">
			<stop offset="0.3231" style="stop-color:#000000;stop-opacity:0"/>
			<stop offset="1" style="stop-color:#000000"/>
		</linearGradient>
		<path id="XMLID_10_" opacity="0.24" fill-rule="evenodd" clip-rule="evenodd" fill="url(#XMLID_141_)" d="M30.4,28c0,0,4.5,1.9,7.8,5.3c-1.9,0.8-2,1-3.5,1.3c-3.5-3.5-6.2-4.5-6.3-4.4
		C30.2,28.5,30.3,28.1,30.4,28z"/>
	</g>
	<linearGradient id="XMLID_142_" gradientUnits="userSpaceOnUse" x1="70.3421" y1="23.6434" x2="69.6922" y2="22.9935">
		<stop offset="0" style="stop-color:#000000;stop-opacity:0"/>
		<stop offset="1" style="stop-color:#000000"/>
	</linearGradient>
	<path id="XMLID_5_" opacity="0.48" fill-rule="evenodd" clip-rule="evenodd" fill="url(#XMLID_142_)" d="M71.1,21.6c0,0-1.2,1.8-2.7,2.8c0.5,0.5,0.5,0.5,0.5,0.5s1.7-1.2,2.8-2.8
	C71.1,21.6,71.1,21.6,71.1,21.6z"/>
	<g id="XMLID_2_">
		<g id="XMLID_4_">
			<path id="XMLID_69_" fill="#707070" d="M131.9,10h-1.8V6.4h8.2V10h-2l4.1,10.6l4.2-10.6h-2.1V6.4h8.4V10H149l-6.4,15.4h-4.3L131.9,10
			z"/>
			<path id="XMLID_71_" fill="#707070" d="M156.6,11.9V22h1.5v3.3H151V22h1.7v-6.9h-1.7v-3.2H156.6z M154.7,10.5c-0.6,0-1.1-0.2-1.6-0.6
			c-0.5-0.4-0.7-0.9-0.7-1.6c0-0.7,0.2-1.2,0.7-1.6c0.5-0.4,1-0.6,1.5-0.6c0.6,0,1.1,0.2,1.6,0.6c0.5,0.4,0.7,0.9,0.7,1.6
			c0,0.7-0.2,1.2-0.7,1.6S155.3,10.5,154.7,10.5z"/>
			<path id="XMLID_74_" fill="#707070" d="M172.6,23.6c-0.4,0.4-0.8,0.7-1.2,0.9c-0.5,0.3-1,0.5-1.5,0.7c-0.5,0.2-1,0.3-1.6,0.4
			s-1.1,0.1-1.5,0.1c-1.3,0-2.4-0.2-3.4-0.6c-0.9-0.4-1.7-0.9-2.3-1.5c-0.6-0.6-1-1.4-1.3-2.3c-0.3-0.9-0.4-1.8-0.4-2.8
			c0-1,0.2-2,0.5-2.9c0.3-0.9,0.8-1.6,1.4-2.2c0.6-0.6,1.4-1.1,2.3-1.4s1.9-0.5,3-0.5c1.1,0,2.1,0.2,3,0.5c0.9,0.3,1.6,0.8,2.2,1.5
			s1,1.5,1.2,2.6c0.2,1.1,0.3,2.4,0.1,3.9h-9.9c0.1,0.7,0.4,1.2,1,1.7c0.6,0.4,1.5,0.7,2.6,0.7c0.5,0,1.1-0.1,1.8-0.3
			c0.7-0.2,1.2-0.5,1.7-0.9L172.6,23.6z M169.6,17.1c0-0.4,0-0.8-0.2-1.1c-0.2-0.3-0.4-0.5-0.6-0.7c-0.3-0.2-0.6-0.3-1-0.4
			c-0.4-0.1-0.8-0.1-1.2-0.1c-0.8,0-1.6,0.2-2.2,0.6c-0.6,0.4-1.1,1-1.2,1.8H169.6z"/>
			<path id="XMLID_77_" fill="#707070" d="M179.8,8.3V12h3.5v3.2h-3.5v5.2c0,0.4,0.1,0.8,0.3,1c0.2,0.3,0.4,0.4,0.7,0.6
			c0.3,0.1,0.6,0.1,1,0.1c0.4,0,0.7-0.1,1.1-0.3l0.9,3.1c-0.6,0.3-1.2,0.4-1.6,0.5c-0.5,0.1-1,0.1-1.6,0.1c-1.6,0-2.7-0.4-3.4-1.2
			c-0.7-0.8-1.1-2.1-1.1-3.9v-5.2h-2.3V12h2.3V8.7L179.8,8.3z"/>
			<path id="XMLID_79_" fill="#707070" d="M190.4,22h1.9v3.4h-7.6V22h2v-6.8h-1.9v-3.3h5.2l0.3,1.4c0.6-0.6,1.3-1,2-1.2
			c0.7-0.2,1.3-0.3,1.8-0.3c0.9,0,1.7,0.1,2.4,0.4s1.3,0.6,1.8,1.1c0.5,0.5,0.9,1.2,1.1,2c0.3,0.8,0.4,1.8,0.4,3V22h1.9v3.4h-7.2V22
			h1.5v-3.7c0-0.4,0-0.7-0.1-1.1s-0.2-0.7-0.3-1c-0.2-0.3-0.4-0.5-0.8-0.7c-0.4-0.2-0.8-0.3-1.4-0.3c-0.9,0-1.7,0.3-2.2,0.9
			c-0.6,0.6-0.8,1.4-0.8,2.4V22z"/>
			<path id="XMLID_81_" fill="#707070" d="M219.2,22v3.3H214l-0.2-1.5c-0.8,0.8-1.6,1.3-2.4,1.5c-0.8,0.2-1.7,0.4-2.5,0.4
			c-1,0-1.8-0.2-2.6-0.5c-0.8-0.3-1.4-0.8-2-1.3c-0.6-0.6-1-1.3-1.3-2.2c-0.3-0.8-0.5-1.8-0.5-2.9c0-0.9,0.1-1.8,0.4-2.6
			c0.3-0.8,0.7-1.6,1.3-2.3c0.6-0.7,1.2-1.2,2-1.6s1.7-0.7,2.7-0.7c0.9,0,1.8,0.1,2.6,0.3c0.8,0.2,1.5,0.7,2.2,1.4l0.2-1.4h5.1v3.4
			h-1.7V22H219.2z M210.1,15.2c-0.6,0-1.1,0.1-1.5,0.3c-0.5,0.2-0.9,0.4-1.2,0.8c-0.3,0.3-0.6,0.7-0.8,1.1c-0.2,0.4-0.3,0.9-0.3,1.4
			c0,1,0.3,1.9,1,2.6c0.6,0.7,1.5,1,2.7,1c0.6,0,1.1-0.1,1.6-0.3s0.9-0.4,1.2-0.8c0.3-0.3,0.6-0.7,0.8-1.1c0.2-0.4,0.3-0.9,0.3-1.4
			c0-1.1-0.3-1.9-0.9-2.6C212.2,15.5,211.3,15.2,210.1,15.2z"/>
			<path id="XMLID_84_" fill="#707070" d="M220.8,25.3V22h1.9v-6.8h-1.8v-3.3h5.3l0.4,1.4c0.4-0.6,0.9-1,1.4-1.3
			c0.6-0.3,1.2-0.4,1.8-0.4c0.9,0,1.7,0.2,2.4,0.6c0.6,0.4,1.1,1,1.4,1.8c0.5-0.8,1.1-1.3,1.9-1.7c0.7-0.4,1.6-0.6,2.6-0.6
			c1.1,0,1.9,0.1,2.7,0.4c0.7,0.3,1.3,0.7,1.7,1.2c0.4,0.5,0.7,1.2,0.9,1.9c0.2,0.8,0.3,1.6,0.3,2.6v4h1.9v3.4h-7.3V22h1.7V18
			c0-0.3,0-0.7-0.1-1c-0.1-0.3-0.2-0.6-0.3-0.9c-0.2-0.3-0.4-0.5-0.6-0.6s-0.7-0.2-1.1-0.2c-0.5,0-0.8,0.1-1.2,0.3
			c-0.3,0.2-0.6,0.4-0.8,0.7c-0.2,0.3-0.4,0.6-0.4,0.9s-0.1,0.7-0.1,1.1V22h1.8v3.4h-7.4V22h1.8v-3.7c0-1-0.2-1.7-0.6-2.2
			c-0.4-0.5-1-0.8-1.7-0.8c-0.8,0-1.4,0.2-1.9,0.7c-0.4,0.5-0.7,1.2-0.7,2.2V22h1.9v3.4H220.8z"/>
		</g>
		<linearGradient id="XMLID_143_" gradientUnits="userSpaceOnUse" x1="142.8308" y1="21.5173" x2="140.8015" y2="22.8352">
			<stop offset="0" style="stop-color:#000000;stop-opacity:0"/>
			<stop offset="1" style="stop-color:#000000"/>
		</linearGradient>
		<polygon id="XMLID_3_" class="st5" opacity="0.48" fill-rule="evenodd" clip-rule="evenodd" fill="url(#XMLID_143_)" points="140.4,20.7 142.5,25.5 143.3,23.6 141.1,18.9 	"/>
	</g>
	<g id="XMLID_6_">
		<path id="XMLID_30_" fill="#707070" d="M58.4,30.7v1.5h1.7v0.4h-1.7v3c0,0.7,0.1,1.2,0.9,1.2c0.2,0,0.6-0.1,0.8-0.2l0.2,0.4
		c-0.3,0.2-0.7,0.3-1,0.3c-1,0-1.4-0.6-1.4-1.6v-3h-1.1v-0.4H58v-1.5L58.4,30.7z"/>
		<path id="XMLID_32_" fill="#707070" d="M61.6,30.5h-0.9v-0.4h1.4v3.1c0.4-0.8,1.2-1.1,1.9-1.1c1.4,0,2,0.8,2,2.2v2.4h0.9v0.4h-2.2
		v-0.4h0.8v-2.4c0-1.2-0.5-1.7-1.6-1.7c-1,0-1.8,0.8-1.8,1.8v2.3H63v0.4h-2.3v-0.4h0.9V30.5z"/>
		<path id="XMLID_34_" fill="#707070" d="M72.2,36.3c-0.5,0.6-1.4,0.9-2.2,0.9c-1.4,0-2.5-1-2.5-2.5c0-1.5,1.1-2.6,2.5-2.6
		c1.4,0,2.7,0.8,2.5,2.8H68c0.1,1.2,1,1.9,2.1,1.9c0.7,0,1.4-0.3,1.8-0.8L72.2,36.3z M72.1,34.4c0-1.2-0.8-1.9-2-1.9
		c-1.1,0-1.9,0.7-2,1.9H72.1z"/>
		<path id="XMLID_37_" fill="#707070" d="M82.2,36.7v0.4h-1.3c0-0.3,0-0.8,0-1.1c-0.4,0.8-1.3,1.2-2,1.2c-1.4,0-2.5-1-2.5-2.6
		c0-1.6,1.1-2.6,2.5-2.6c0.8,0,1.7,0.4,2.1,1.2v-2.8h-0.9v-0.4h1.4v6.6H82.2z M76.7,34.7c0,1.3,0.9,2.1,2.1,2.1c1.3,0,2-1,2-2.1
		c0-1.1-0.7-2.1-2-2.1C77.6,32.5,76.7,33.3,76.7,34.7z"/>
		<path id="XMLID_40_" fill="#707070" d="M84.2,32.2v4.5h0.9v0.5h-2.4v-0.5h0.9v-4.1h-0.9v-0.4H84.2z M83.5,30.5c0-0.3,0.2-0.4,0.4-0.4
		c0.2,0,0.4,0.1,0.4,0.4s-0.2,0.4-0.4,0.4C83.7,30.9,83.5,30.8,83.5,30.5z"/>
		<path id="XMLID_43_" fill="#707070" d="M86.3,38.1c0,1,1,1.5,2,1.5c1,0,2-0.4,2-1.4c0-1.1-1.1-1.4-2-1.4c-1.5,0-2.6-0.9-2.6-2.4
		c0-1.6,1.3-2.4,2.6-2.4c0.5,0,1.1,0.2,1.5,0.4l0.5-0.6l0.3,0.3l-0.5,0.6c0.4,0.4,0.7,0.8,0.7,1.7c0,0.8-0.5,1.9-1.6,2.2
		c0.9,0.2,1.5,0.7,1.5,1.6c0,1.2-1.3,1.8-2.5,1.8c-1.3,0-2.5-0.7-2.4-2H86.3z M88.3,36.5c1.3,0,2.1-0.9,2.1-2c0-1.4-1-2-2.1-2
		c-1,0-2.1,0.6-2.1,2C86.3,35.8,87.2,36.5,88.3,36.5z"/>
		<path id="XMLID_46_" fill="#707070" d="M93.2,32.2v4.5h0.9v0.5h-2.4v-0.5h0.9v-4.1h-0.9v-0.4H93.2z M92.6,30.5c0-0.3,0.2-0.4,0.4-0.4
		c0.2,0,0.4,0.1,0.4,0.4s-0.2,0.4-0.4,0.4C92.8,30.9,92.6,30.8,92.6,30.5z"/>
		<path id="XMLID_49_" fill="#707070" d="M96,30.7v1.5h1.7v0.4H96v3c0,0.7,0.1,1.2,0.9,1.2c0.2,0,0.6-0.1,0.8-0.2l0.2,0.4
		c-0.3,0.2-0.7,0.3-1,0.3c-1,0-1.4-0.6-1.4-1.6v-3h-1.1v-0.4h1.1v-1.5L96,30.7z"/>
		<path id="XMLID_51_" fill="#707070" d="M104.4,36.7v0.4h-1.4c0-0.3,0-0.8,0-1.1c-0.4,0.8-1.3,1.2-2.1,1.2c-1.4,0-2.5-1-2.5-2.6
		c0-1.6,1.1-2.6,2.5-2.6c0.8,0,1.7,0.4,2.1,1.2v-1.1h1.4v0.5h-0.9v4.1H104.4z M98.9,34.7c0,1.3,0.9,2.1,2.1,2.1c1.3,0,2-1,2.1-2.1
		c0-1.1-0.7-2.1-2.1-2.1C99.8,32.6,98.9,33.4,98.9,34.7z"/>
		<path id="XMLID_54_" fill="#707070" d="M105,30.1h1.4v6.6h0.9v0.5H105v-0.5h0.9v-6.2H105V30.1z"/>
		<path id="XMLID_56_" fill="#707070" d="M111.8,30.7v1.5h1.7v0.4h-1.7v3c0,0.7,0.1,1.2,0.9,1.2c0.2,0,0.6-0.1,0.8-0.2l0.2,0.4
		c-0.3,0.2-0.7,0.3-1,0.3c-1,0-1.4-0.6-1.4-1.6v-3h-1.1v-0.4h1.1v-1.5L111.8,30.7z"/>
		<path id="XMLID_58_" fill="#707070" d="M115.1,32.6h-0.9v-0.4h1.3l0,1c0.3-0.6,1-1,1.7-1c0.4,0,0.7,0.1,1,0.3l-0.2,0.4
		c-0.3-0.2-0.6-0.2-0.9-0.2c-1,0-1.6,0.8-1.6,1.7v2.5h0.9v0.4h-2.3v-0.4h0.9V32.6z"/>
		<path id="XMLID_60_" fill="#707070" d="M124.6,36.7v0.4h-1.4c0-0.3,0-0.8,0-1.1c-0.4,0.8-1.3,1.2-2.1,1.2c-1.4,0-2.5-1-2.5-2.6
		c0-1.6,1.1-2.6,2.5-2.6c0.8,0,1.7,0.4,2.1,1.2v-1.1h1.4v0.5h-0.9v4.1H124.6z M119.1,34.7c0,1.3,0.9,2.1,2.1,2.1c1.3,0,2-1,2.1-2.1
		c0-1.1-0.7-2.1-2.1-2.1C120,32.6,119.1,33.4,119.1,34.7z"/>
		<path id="XMLID_63_" fill="#707070" d="M126.7,36.7h0.9v0.4h-2.2v-0.4h0.9v-4.1h-0.9v-0.4h1.4l0,1c0.4-0.8,1.2-1.1,1.9-1.1
		c1.4,0,2.2,0.8,2.2,2.2v2.4h0.9v0.4h-2.2v-0.4h0.8v-2.4c0-1.2-0.6-1.8-1.7-1.8c-1,0-1.8,0.8-1.8,1.8V36.7z"/>
		<path id="XMLID_65_" fill="#707070" d="M136.1,33.6h-0.4l0-0.8c-0.4-0.2-0.9-0.3-1.3-0.3c-0.8,0-1.5,0.3-1.5,0.9
		c0,0.7,0.7,0.8,1.5,0.9c0.9,0.1,2.1,0.3,2.1,1.5c0,1.1-1.1,1.4-2.1,1.4c-0.8,0-1.3-0.2-2-0.6v-1.1h0.4l0,0.8c0.5,0.3,1,0.4,1.6,0.4
		c0.6,0,1.6-0.2,1.6-1c0-0.7-0.8-0.9-1.6-1c-0.8-0.1-2-0.3-2-1.3c0-1,0.9-1.4,2-1.4c0.6,0,1.3,0.2,1.8,0.5L136.1,33.6z"/>
		<path id="XMLID_67_" fill="#707070" d="M139.8,36.7v0.4h-2.5v-0.4h0.9v-4.1h-1v-0.4h1v-0.5c0-1,0.4-1.6,1.5-1.6c0.3,0,0.7,0.1,1,0.3
		l-0.2,0.4c-0.2-0.2-0.5-0.2-0.7-0.2c-0.6,0-1,0.3-1,1.2v0.5h1.6v0.4h-1.6v4.1H139.8z"/>
		<path id="XMLID_86_" fill="#707070" d="M143.4,32.1c1.4,0,2.5,1,2.5,2.6c0,1.6-1.1,2.5-2.5,2.5c-1.4,0-2.5-1-2.5-2.5
		C140.8,33.1,142,32.1,143.4,32.1z M143.4,32.5c-1.1,0-2.1,0.8-2.1,2.1c0,1.3,0.9,2.1,2.1,2.1c1.1,0,2.1-0.8,2.1-2.1
		C145.5,33.3,144.5,32.5,143.4,32.5z"/>
		<path id="XMLID_89_" fill="#707070" d="M147.7,32.6h-0.9v-0.4h1.3l0,1c0.3-0.6,1-1,1.7-1c0.4,0,0.7,0.1,1,0.3l-0.2,0.4
		c-0.3-0.2-0.6-0.2-0.9-0.2c-1,0-1.6,0.8-1.6,1.7v2.5h0.9v0.4h-2.3v-0.4h0.9V32.6z"/>
		<path id="XMLID_91_" fill="#707070" d="M151.4,37.1v-0.4h0.9v-4.1h-0.9v-0.4h1.4l0,0.9c0.3-0.7,1-1,1.6-1c0.8,0,1.6,0.3,1.8,1.2
		c0.3-0.9,1.1-1.2,1.8-1.2c1.3,0,2.1,0.8,2.1,2.1v2.5h0.9v0.4h-2.2v-0.4h0.8v-2.5c0-1-0.6-1.6-1.6-1.6c-1,0-1.6,0.7-1.6,1.7v2.5h0.8
		v0.4h-2.2v-0.4h0.9v-2.5c0-1-0.6-1.7-1.6-1.7c-0.9,0-1.6,0.7-1.6,1.7v2.5h0.9v0.4H151.4z"/>
		<path id="XMLID_93_" fill="#707070" d="M167.7,36.7v0.4h-1.4c0-0.3,0-0.8,0-1.1c-0.4,0.8-1.3,1.2-2.1,1.2c-1.4,0-2.5-1-2.5-2.6
		c0-1.6,1.1-2.6,2.5-2.6c0.8,0,1.7,0.4,2.1,1.2v-1.1h1.4v0.5h-0.9v4.1H167.7z M162.2,34.7c0,1.3,0.9,2.1,2.1,2.1c1.3,0,2-1,2.1-2.1
		c0-1.1-0.7-2.1-2.1-2.1C163.1,32.6,162.2,33.4,162.2,34.7z"/>
		<path id="XMLID_96_" fill="#707070" d="M169.6,30.7v1.5h1.7v0.4h-1.7v3c0,0.7,0.1,1.2,0.9,1.2c0.2,0,0.6-0.1,0.8-0.2l0.2,0.4
		c-0.3,0.2-0.7,0.3-1,0.3c-1,0-1.4-0.6-1.4-1.6v-3h-1.1v-0.4h1.1v-1.5L169.6,30.7z"/>
		<path id="XMLID_98_" fill="#707070" d="M173.4,32.2v4.5h0.9v0.5H172v-0.5h0.9v-4.1h-0.9v-0.4H173.4z M172.8,30.5
		c0-0.3,0.2-0.4,0.4-0.4c0.2,0,0.4,0.1,0.4,0.4s-0.2,0.4-0.4,0.4C173,30.9,172.8,30.8,172.8,30.5z"/>
		<path id="XMLID_101_" fill="#707070" d="M177.7,32.1c1.4,0,2.5,1,2.5,2.6c0,1.6-1.1,2.5-2.5,2.5c-1.4,0-2.5-1-2.5-2.5
		C175.1,33.1,176.3,32.1,177.7,32.1z M177.7,32.5c-1.1,0-2.1,0.8-2.1,2.1c0,1.3,0.9,2.1,2.1,2.1c1.1,0,2.1-0.8,2.1-2.1
		C179.7,33.3,178.8,32.5,177.7,32.5z"/>
		<path id="XMLID_104_" fill="#707070" d="M182.5,36.7h0.9v0.4h-2.2v-0.4h0.9v-4.1h-0.9v-0.4h1.4l0,1c0.4-0.8,1.2-1.1,1.9-1.1
		c1.4,0,2.2,0.8,2.2,2.2v2.4h0.9v0.4h-2.2v-0.4h0.8v-2.4c0-1.2-0.6-1.8-1.7-1.8c-1,0-1.8,0.8-1.8,1.8V36.7z"/>
		<path id="XMLID_106_" fill="#707070" d="M195.1,36.5c-0.5,0.5-1.2,0.7-1.8,0.7c-1.5,0-2.6-0.9-2.6-2.5c0-1.6,1.1-2.6,2.6-2.6
		c0.6,0,1.2,0.2,1.7,0.5l0,1.1h-0.4v-0.9c-0.4-0.2-0.8-0.3-1.2-0.3c-1.1,0-2.1,0.7-2.1,2.1c0,1.3,0.9,2.1,2.1,2.1
		c0.5,0,1.1-0.2,1.5-0.6L195.1,36.5z"/>
		<path id="XMLID_108_" fill="#707070" d="M198.5,32.1c1.4,0,2.5,1,2.5,2.6c0,1.6-1.1,2.5-2.5,2.5c-1.4,0-2.5-1-2.5-2.5
		C196,33.1,197.1,32.1,198.5,32.1z M198.5,32.5c-1.1,0-2.1,0.8-2.1,2.1c0,1.3,0.9,2.1,2.1,2.1c1.1,0,2.1-0.8,2.1-2.1
		C200.6,33.3,199.7,32.5,198.5,32.5z"/>
		<path id="XMLID_111_" fill="#707070" d="M203.3,36.7h0.9v0.4H202v-0.4h0.9v-4.1H202v-0.4h1.4l0,1c0.4-0.8,1.2-1.1,1.9-1.1
		c1.4,0,2.2,0.8,2.2,2.2v2.4h0.9v0.4H206v-0.4h0.8v-2.4c0-1.2-0.6-1.8-1.7-1.8c-1,0-1.8,0.8-1.8,1.8V36.7z"/>
		<path id="XMLID_113_" fill="#707070" d="M212.8,33.6h-0.4l0-0.8c-0.4-0.2-0.9-0.3-1.3-0.3c-0.8,0-1.5,0.3-1.5,0.9
		c0,0.7,0.7,0.8,1.5,0.9c0.9,0.1,2.1,0.3,2.1,1.5c0,1.1-1.1,1.4-2.1,1.4c-0.8,0-1.3-0.2-2-0.6v-1.1h0.4l0,0.8c0.5,0.3,1,0.4,1.6,0.4
		c0.6,0,1.6-0.2,1.6-1c0-0.7-0.8-0.9-1.6-1c-0.8-0.1-2-0.3-2-1.3c0-1,0.9-1.4,2-1.4c0.6,0,1.3,0.2,1.8,0.5L212.8,33.6z"/>
		<path id="XMLID_115_" fill="#707070" d="M219,36.7h0.9v0.4h-1.3l0-1c-0.4,0.7-1.1,1.1-1.9,1.1c-1.4,0-2.1-0.8-2.1-2.2v-2.4h-0.9v-0.4
		h1.4V35c0,1.2,0.6,1.8,1.7,1.8c1.1,0,1.8-0.8,1.8-1.8v-2.3h-0.9v-0.4h1.4V36.7z"/>
		<path id="XMLID_117_" fill="#707070" d="M220.3,30.1h1.4v6.6h0.9v0.5h-2.3v-0.5h0.9v-6.2h-0.9V30.1z"/>
		<path id="XMLID_119_" fill="#707070" d="M224.5,30.7v1.5h1.7v0.4h-1.7v3c0,0.7,0.1,1.2,0.9,1.2c0.2,0,0.6-0.1,0.8-0.2l0.2,0.4
		c-0.3,0.2-0.7,0.3-1,0.3c-1,0-1.4-0.6-1.4-1.6v-3H223v-0.4h1.1v-1.5L224.5,30.7z"/>
		<path id="XMLID_121_" fill="#707070" d="M233,36.7v0.4h-1.4c0-0.3,0-0.8,0-1.1c-0.4,0.8-1.3,1.2-2.1,1.2c-1.4,0-2.5-1-2.5-2.6
		c0-1.6,1.1-2.6,2.5-2.6c0.8,0,1.7,0.4,2.1,1.2v-1.1h1.4v0.5H232v4.1H233z M227.5,34.7c0,1.3,0.9,2.1,2.1,2.1c1.3,0,2-1,2.1-2.1
		c0-1.1-0.7-2.1-2.1-2.1C228.4,32.6,227.5,33.4,227.5,34.7z"/>
		<path id="XMLID_124_" fill="#707070" d="M235,36.7h0.9v0.4h-2.2v-0.4h0.9v-4.1h-0.9v-0.4h1.4l0,1c0.4-0.8,1.2-1.1,1.9-1.1
		c1.4,0,2.2,0.8,2.2,2.2v2.4h0.9v0.4h-2.2v-0.4h0.8v-2.4c0-1.2-0.6-1.8-1.7-1.8c-1,0-1.8,0.8-1.8,1.8V36.7z"/>
		<path id="XMLID_126_" fill="#707070" d="M241.7,30.7v1.5h1.7v0.4h-1.7v3c0,0.7,0.1,1.2,0.9,1.2c0.2,0,0.6-0.1,0.8-0.2l0.2,0.4
		c-0.3,0.2-0.7,0.3-1,0.3c-1,0-1.4-0.6-1.4-1.6v-3h-1.1v-0.4h1.1v-1.5L241.7,30.7z"/>
	</g>
</svg>
