<?xml version="1.0" encoding="utf-8"?>
<!-- Generator: Adobe Illustrator 19.0.0, SVG Export Plug-In . SVG Version: 6.00 Build 0)  -->
<svg version="1.1" id="Layer_1"
	xmlns="http://www.w3.org/2000/svg"
	xmlns:xlink="http://www.w3.org/1999/xlink" x="0px" y="0px" viewBox="0 0 51.1 51" style="enable-background:new 0 0 51.1 51;" xml:space="preserve">
	<g id="XMLID_9_">
		<path id="XMLID_13_" fill-rule="evenodd" clip-rule="evenodd" fill="#FC6A30" d="M28.6,1.7c4.1,3.9,8.3,8.6,7.5,17.1c-9.6-2.3-15.9,4-18.2,10.6c3.7-1.9,10.7-1.4,14.1,0.3
		c-2,2.5-4.5,4.4-7.5,5.8c4.3,2,11.4,1.6,15.3-0.5c3.1,3.1,4.9,8.5,4.9,14.3c1.1-1.6,1.3-4,1.9-6c0.2,1,0.2,2.1,0.5,2.9
		c0.7-1.8,0.8-4.1,1.1-6.3c0.4,0.8,0.5,1.9,0.8,2.7c1.4-5.7-0.5-12-2.6-15.7c3.7-10.4-3.2-20.1-9.7-23.9c0.4,1,1.1,1.5,1.5,2.6
		C36.5,4.4,35,3,32.8,2.2c-0.1,0.6,1.3,1.2,1.5,2.2c-1.6-1.1-3.5-2-5.5-2.7L28.6,1.7z"/>
		<path id="XMLID_12_" fill-rule="evenodd" clip-rule="evenodd" fill="#197FDB" d="M2.6,27C-1.1,16.6,5.9,6.9,12.4,3.1c-0.4,1-1.1,1.5-1.5,2.6c1.7-1.2,3.2-2.6,5.4-3.4
		c0.1,0.6-1.3,1.2-1.5,2.2c1.6-1.1,3.5-2,5.5-2.7l0.2,0c-3.8,3.6-7.6,7.8-7.6,15.1l0,0c0,0,0,0.1,0,0.3l0,0.2c0,0.2,0,0.5,0.1,0.8
		c0,0.2,0,0.4,0,0.7l0,0c0.3,2.5,1.2,7,4.1,10.9l0,0c0.1,0.2,0.3,0.3,0.5,0.5c0.3,0.4,0.6,0.7,0.9,1.1l0.2,0.3c0.5,0.5,1,1,1.6,1.4
		l0,0c1.3,1,2.7,1.8,4.2,2.6c-4.3,2-11.4,1.6-15.3-0.5C9.3,35,4.6,32.7,2.6,27"/>
		<linearGradient id="XMLID_71_" gradientUnits="userSpaceOnUse" x1="33.3334" y1="35.0903" x2="36.4083" y2="31.7929">
			<stop offset="0.3231" style="stop-color:#000000;stop-opacity:0"/>
			<stop offset="1" style="stop-color:#000000"/>
		</linearGradient>
		<path id="XMLID_10_" opacity="0.24" fill-rule="evenodd" fill="url(#XMLID_71_)" clip-rule="evenodd" d="M32,29.7c0,0,4.5,1.9,7.8,5.3c-1.9,0.8-2,1-3.5,1.3c-3.5-3.5-6.2-4.5-6.3-4.4
		C31.8,30.2,31.9,29.8,32,29.7z"/>
	</g>
</svg>
